<svg xmlns="http://www.w3.org/2000/svg" width="1920" height="1996" viewBox="0 0 1920 1996" fill="none">
  <path d="M133.826 1746.65C21.8191 1735.49 -1.97814 1664.52 0.124089 1630.44L0.124089 0.744141L1919.88 0.744141V1630.44C1921.98 1664.52 1898.18 1735.49 1786.17 1746.65C1646.17 1760.59 1649.95 1809.4 1628.51 1848.91C1607.06 1888.42 1573.01 1927.94 1453.18 1896.56C1333.36 1865.18 1216.05 1854.72 1126.5 1929.1C1054.85 1988.6 985.5 1995.34 960 1995.34C934.5 1995.34 865.148 1988.6 793.504 1929.1C703.949 1854.72 586.645 1865.18 466.818 1896.56C346.991 1927.94 312.935 1888.42 291.492 1848.91C270.05 1809.4 273.834 1760.59 133.826 1746.65Z" fill="#1D1534"/>
  <path d="M133.826 1746.65C21.8191 1735.49 -1.97814 1664.52 0.124089 1630.44L0.124089 0.744141L1919.88 0.744141V1630.44C1921.98 1664.52 1898.18 1735.49 1786.17 1746.65C1646.17 1760.59 1649.95 1809.4 1628.51 1848.91C1607.06 1888.42 1573.01 1927.94 1453.18 1896.56C1333.36 1865.18 1216.05 1854.72 1126.5 1929.1C1054.85 1988.6 985.5 1995.34 960 1995.34C934.5 1995.34 865.148 1988.6 793.504 1929.1C703.949 1854.72 586.645 1865.18 466.818 1896.56C346.991 1927.94 312.935 1888.42 291.492 1848.91C270.05 1809.4 273.834 1760.59 133.826 1746.65Z" fill="url(#paint0_linear_101_13)"/>
  <path d="M0 1930H1920V1996H0V1930Z" fill="url(#paint1_linear_101_13)"/>
  <defs>
    <linearGradient id="paint0_linear_101_13" x1="-5.46078e-05" y1="80.3314" x2="2544.88" y2="482.203" gradientUnits="userSpaceOnUse">
      <stop offset="0.411458" stop-color="#ED7949"/>
      <stop offset="0.833333" stop-color="#572C83"/>
      <stop offset="0.963542" stop-color="#DA3514"/>
    </linearGradient>
    <linearGradient id="paint1_linear_101_13" x1="960" y1="1996" x2="960" y2="1930" gradientUnits="userSpaceOnUse">
      <stop stop-color="white" stop-opacity="0"/>
      <stop offset="1" stop-color="white" stop-opacity="0.75"/>
    </linearGradient>
  </defs>
</svg>
