<svg xmlns="http://www.w3.org/2000/svg" width="1920" height="965" viewBox="0 0 1920 965" fill="none">
<path d="M93.1106 661.736C-23.738 648.146 -48.5639 561.695 -46.3708 520.168L-46.3708 0.165039L1956.37 0.165039V520.168C1958.56 561.695 1933.74 648.146 1816.89 661.736C1670.83 678.725 1674.78 738.183 1652.41 786.316C1630.04 834.449 1594.51 882.583 1469.5 844.359C1344.49 806.136 1222.12 793.395 1128.69 883.998C1053.95 956.481 981.602 964.692 955 964.692C928.397 964.692 856.047 956.481 781.306 883.998C687.88 793.395 565.505 806.136 440.498 844.359C315.491 882.583 279.963 834.449 257.593 786.316C235.223 738.183 239.171 678.725 93.1106 661.736Z" fill="#EE7A4A"/>
</svg>