<svg xmlns="http://www.w3.org/2000/svg" width="1920" height="928" viewBox="0 0 1920 928" fill="none">
<path d="M2082.72 717.843C2223.59 772.379 2227.72 880.276 2212.17 927.408L2018.54 912.056L-34.7283 912.057L-274.355 261.145C-264.253 212.554 -206.732 121.175 -57.4605 144.384C129.129 173.395 142.59 103.553 185.228 55.5191C227.866 7.48512 286.841 -36.1714 430.24 49.4697C573.64 135.111 721.641 190.507 865.616 117.162C980.796 58.4867 1073.16 73.0925 1106.19 81.9424C1139.22 90.7924 1226.51 124.325 1296.92 232.73C1384.93 368.235 1540.8 394.262 1707.81 391.794C1874.82 389.327 1904.07 456.622 1916.98 519.539C1929.88 582.457 1906.62 649.672 2082.72 717.843Z" fill="#572C83"/>
</svg>