<svg xmlns="http://www.w3.org/2000/svg" width="1920" height="966" viewBox="0 0 1920 966" fill="none">
<path d="M78.1575 662.521C-38.6911 648.93 -63.517 562.479 -61.3239 520.953L-61.3239 0.949463L1941.42 0.949463V520.953C1943.61 562.479 1918.78 648.93 1801.94 662.521C1655.88 679.509 1659.82 738.968 1637.45 787.101C1615.08 835.234 1579.56 883.367 1454.55 845.144C1329.54 806.92 1207.17 794.179 1113.74 884.783C1039 957.265 966.649 965.476 940.047 965.476C913.444 965.476 841.094 957.265 766.353 884.783C672.927 794.179 550.552 806.92 425.545 845.144C300.538 883.367 265.01 835.234 242.64 787.101C220.27 738.968 224.218 679.509 78.1575 662.521Z" fill="#572C83"/>
</svg>